<svg xmlns="http://www.w3.org/2000/svg" xml:space="preserve" width="200" height="81" data-c="1"><linearGradient id="a" x1="100.476" x2="100.476" y1="6.237" y2="48.126" gradientUnits="userSpaceOnUse"><stop offset="0" style="stop-color:#88d3e5"/><stop offset=".068" style="stop-color:#7ec5df"/><stop offset=".334" style="stop-color:#5a9ecf"/><stop offset=".534" style="stop-color:#4388c5"/><stop offset=".645" style="stop-color:#3a80c2"/></linearGradient><path fill="url(#a)" d="M196.528 6.237H10L4.422 48.125H192.16z"/><linearGradient id="b" x1="100.509" x2="100.509" y1="7.955" y2="46.059" gradientUnits="userSpaceOnUse"><stop offset="0" style="stop-color:#5cb3e4"/><stop offset=".107" style="stop-color:#4ea1d7"/><stop offset=".355" style="stop-color:#2f7fbf"/><stop offset=".542" style="stop-color:#126db2"/><stop offset=".645" style="stop-color:#0067ad"/></linearGradient><path fill="url(#b)" d="M194.28 7.955H11.863L6.736 46.059h183.447z"/><path fill="#FFF" fill-rule="evenodd" stroke="#C4E1F6" stroke-miterlimit="10" stroke-width=".5" d="m2.0000000000000004 75.006 2.2-19.764c0-.081.2-.162.2-.243H35l-2.2 19.764c0 .081 0 .162-.2.243H2M34.45 75.006l2.2-19.764c0-.081.2-.162.2-.243h30.6l-2.2 19.764c0 .081 0 .162-.2.243h-30.6" clip-rule="evenodd"/><path fill="#F6EC13" fill-rule="evenodd" stroke="#C4E1F6" stroke-miterlimit="10" stroke-width=".5" d="m66.9 75.006 2.2-19.764c0-.081.2-.162.2-.243h30.6l-2.2 19.764c0 .081 0 .162-.2.243H66.9" clip-rule="evenodd"/><path fill="#FFF" fill-rule="evenodd" stroke="#C4E1F6" stroke-miterlimit="10" stroke-width=".5" d="m99.35 75.006 2.201-19.764c0-.081.199-.162.199-.243h30.6l-2.199 19.764c0 .081 0 .162-.2.243H99.35M131.8 75.006l2.199-19.764c0-.081.2-.162.2-.243h30.6l-2.2 19.764c0 .081 0 .162-.199.243h-30.6M164.249 75.006l2.201-19.764c0-.081.199-.162.199-.243h30.6l-2.199 19.764c0 .081 0 .162-.2.243h-30.601" clip-rule="evenodd"/><path fill="#010101" d="M75.553 64.285v-3.003c0-.211.169-.38.38-.38.212 0 .381.169.381.38v3.003a.38.38 0 1 1-.761 0m1.691.381h-.55c-.085 0-.126-.043-.085-.127l1.312-3.214c.085-.212.296-.338.55-.338.211 0 .423.168.507.338l.932 2.283.931-2.283c.084-.212.296-.338.55-.338.21 0 .422.168.507.338l1.31 3.214c.044.084 0 .127-.083.127h-.551c-.042 0-.126-.043-.126-.084l-1.1-2.664-1.1 2.664c-.042.126-.169.084-.254.084h-.339c-.042 0-.126-.043-.126-.084l-1.101-2.664-1.099 2.664c0 .041-.042.084-.085.084m-2.072 3.595-2.284-2.114a.7.7 0 0 1-.211-.507c0-.212.168-.381.38-.381h3.003c.212 0 .381.169.381.381 0 .211-.169.38-.381.38h-2.115l2.284 2.114c.043.043.212.211.212.508a.38.38 0 0 1-.381.381h-3.003a.38.38 0 0 1-.38-.381c0-.211.168-.381.38-.381zm2.072-3.002h-.55c-.085 0-.126.042-.085.126l1.312 3.214c.085.212.296.339.55.339.211 0 .423-.17.507-.339l.932-2.283.931 2.283c.084.212.296.339.55.339.21 0 .422-.17.507-.339l1.31-3.214c.044-.084 0-.126-.083-.126h-.551c-.042 0-.126.042-.126.083l-1.1 2.665-1.1-2.665c-.042-.126-.169-.083-.254-.083h-.339c-.042 0-.126.042-.126.083l-1.101 2.665-1.099-2.665c0-.041-.042-.083-.085-.083m6.302 3.383V65.64c0-.212.169-.381.38-.381.212 0 .381.169.381.381v3.002a.38.38 0 0 1-.381.381c-.211-.044-.38-.212-.38-.381m1.394-3.341h2.707c.212 0 .381.169.381.381 0 .211-.169.38-.381.38h-.93c-.128 0-.212.127-.212.212v2.368a.38.38 0 0 1-.38.381.38.38 0 0 1-.381-.381v-2.368c0-.127-.127-.212-.212-.212h-.634a.38.38 0 0 1-.381-.38c.002-.212.212-.381.423-.381m5.288 0h1.184c.212 0 .339.169.339.339 0 .211-.17.338-.339.338h-1.563a1.12 1.12 0 0 0-1.101 1.099v.128c0 .592.508 1.1 1.101 1.1h1.563c.212 0 .339.168.339.338 0 .212-.17.338-.339.338h-1.607a1.74 1.74 0 0 1-1.732-1.734v-.211a1.74 1.74 0 0 1 1.732-1.733h.423zm-11.124-.381-.677-1.606-.676 1.606.676 1.608zm2.327-1.65-.676 1.607.676 1.607.678-1.607zm10.658 5.372V65.64c0-.212.169-.339.338-.339.212 0 .338.169.338.339v.93c0 .127.128.211.211.211h1.438c.212 0 .339.169.339.339 0 .212-.17.338-.339.338h-1.438c-.126 0-.211.128-.211.212v.93a.334.334 0 0 1-.338.339c-.169.04-.338-.085-.338-.297m2.961 0V65.64a.38.38 0 1 1 .761 0v3.002a.38.38 0 0 1-.381.381c-.211-.044-.38-.212-.38-.381m-21.232-6.98-2.283 2.116c-.042.042-.212.212-.212.507 0 .211.17.381.381.381h3.002a.38.38 0 1 0 0-.763h-2.114l2.283-2.114s.213-.211.213-.507a.38.38 0 0 0-.382-.38h-3.002a.38.38 0 1 0 0 .76z"/><path fill="#E82140" d="M174.009 63.186h.547a.8.8 0 0 1 .801.801v2.992c0 .464.59.421.8.379 0 .21.043.38-.042.548-.168.801-1.517.588-1.896 0-.21-.295-.253-.717-.253-1.18v-3.54zm-5.141.378h.083v.929h1.096c.042.42.042 1.053-.633 1.053h-.506v1.516c0 .422.716.381 1.055.254.041.506-.041.758-.253.926-.422.339-1.307.213-1.687-.168-.209-.211-.378-.59-.378-1.053V64.83c.043-.719.59-1.266 1.223-1.266m4.677 3.666c.083.591-.126.885-.506 1.054-.632.253-1.645.209-2.192-.211a1.73 1.73 0 0 1-.674-1.264c-.126-.885.21-1.728.971-2.149.251-.128.505-.211.715-.253.758-.085 1.518.253 1.813.969a1.7 1.7 0 0 1 .127.632c-.043.591-.422.76-.929.843-.379.043-.883.043-1.516.043.041.843 1.81.716 2.191.336"/><path fill="#FFF" d="M171.354 66.051c.041-.253.168-.464.295-.59.127-.127.338-.169.505-.127.421.042.76.591.043.674-.255.086-.592.043-.843.043"/><path fill="#E82140" d="M179.57 67.23c.084.591-.127.885-.506 1.054-.632.253-1.645.209-2.192-.211a1.73 1.73 0 0 1-.673-1.264c-.126-.885.21-1.728.969-2.149.252-.128.507-.211.716-.253.759-.085 1.517.253 1.813.969q.125.317.125.632c-.041.591-.422.76-.926.843-.38.043-.885.043-1.517.043.083.843 1.81.716 2.191.336"/><path fill="#FFF" d="M177.38 66.051c.04-.253.168-.464.295-.59.126-.127.337-.169.504-.127.424.042.76.591.043.674-.252.086-.59.043-.842.043"/><path fill="#010101" d="M182.729 68.284v-.885c-.631.294-1.137.211-1.348-.127-.422-.547-.124-1.39.422-1.727.336-.254.8-.296 1.221-.128.085-.295.212-.589.254-.886-.38-.167-1.812-.251-2.654.718-.716.801-.927 2.36.126 2.991.464.297 1.138.34 1.979.044"/><path fill="#010101" d="M185.385 67.693c0 .212-.041.422 0 .675h1.013c.041-1.39.294-2.57.505-3.836-1.223-.421-2.992-.125-3.708 1.224-.336.675-.506 1.896.168 2.445.547.461 1.391.336 2.022-.508"/><path fill="#FFF" d="M185.638 65.292c-1.01-.21-1.98 1.349-1.474 2.065.125.21.421.336.716.126.084-.041.21-.126.253-.253.337-.462.38-1.432.505-1.938"/><path fill="#010101" d="m189.851 68.454 1.098-5.774h1.138l-.421 2.317c.589-.548 1.053-.675 1.432-.59 1.054.169.886 1.265.758 2.065-.126.676-.421 1.39-.377 1.981h-1.181c.126-.592.21-1.139.337-1.687.042-.253.126-.59.126-.885 0-1.054-1.139-.591-1.391.674l-.337 1.937z"/><path fill="#E82140" d="M188.629 67.188c.043-.632-.42-.969-.378-1.348.042-.675.927-.675 1.391-.507l-.128.253.802-.337-.211-.885-.126.254c-.421-.254-1.138-.297-1.728-.087-.675.255-1.18 1.014-.758 1.688.294.464.885.549 1.136.969"/><path fill="#231F20" d="M188.504 65.714c-.042.294.125.549.211.717.675 1.18-.633 1.348-1.518 1.053l.125-.253-.799.337.211.887.125-.253c.212.125.59.21.97.253.717.039 1.433-.043 1.813-.717.209-.338.209-.759 0-1.139-.252-.463-.844-.463-1.138-.885"/><path fill="#2C2A29" d="M45.194 70.186c-.042-.043-.127-.084-.169-.127s-.125-.043-.211-.043h-.126l-.127.043-.127.084-.126.127c-.042-.084-.127-.127-.211-.211-.085-.043-.169-.043-.254-.043h-.126l-.128.043-.126.043c-.042.041-.042.041-.085.126v-.169h-.298v1.354h.295v-.763c0-.042 0-.126.043-.169.042-.042.042-.085.084-.126.042-.042.084-.042.127-.086.042-.042.085-.042.127-.042.127 0 .169.042.211.086a.46.46 0 0 1 .084.253v.76h.296v-.76c0-.042 0-.127.042-.17.042-.041.042-.083.085-.127.042-.042.084-.042.126-.084.043-.043.084-.043.126-.043.127 0 .17.043.211.085.043.042.084.169.084.254v.762h.297v-.888c0-.086 0-.17-.043-.213zm1.565.042c-.042-.042-.127-.126-.211-.126-.085-.043-.17-.043-.255-.043-.126 0-.211.043-.253.043a.9.9 0 0 0-.211.126c-.043.042-.128.128-.128.212-.042.085-.042.211-.042.296 0 .126.042.211.042.296.043.084.085.17.128.212s.126.127.211.127c.083.043.169.043.253.043.085 0 .212-.043.255-.043.084-.044.126-.085.211-.127v.17h.295V70.06h-.295zm0 .718c-.042.043-.042.128-.084.128s-.085.084-.126.084c-.043.043-.128.043-.17.043s-.126 0-.169-.043l-.127-.084c-.042-.043-.042-.085-.084-.128s-.042-.126-.042-.169c0-.042 0-.127.042-.169s.042-.127.084-.127c.041-.042.084-.085.127-.085.042-.041.126-.041.169-.041.042 0 .127 0 .17.041l.126.085c.042.043.042.085.084.127s.042.127.042.169c.001.043-.042.084-.042.169m1.691-.211c-.126-.085-.212-.127-.338-.127l-.127-.042c-.042 0-.042 0-.085-.042l-.085-.043-.042-.042h-.084c0-.043.043-.084.043-.126.041-.044.126-.044.21-.044h.127c.042 0 .084.044.126.044l.127.042c.042.041.042.041.084.041l.127-.254-.253-.127c-.127-.041-.211-.041-.296-.041s-.17 0-.252.041c-.085.043-.128.043-.212.086l-.126.126c-.043.042-.043.128-.043.212q0 .19.126.254a.48.48 0 0 0 .338.127l.127.041c.084 0 .127.042.212.042.042.043.042.043.042.128 0 .084-.042.084-.084.127s-.127.043-.253.043h-.17c-.042 0-.085-.043-.127-.043s-.085-.043-.126-.043l-.085-.041-.126.211.169.085.168.043a.4.4 0 0 1 .127.041h.126c.127 0 .212 0 .255-.041.084-.043.126-.043.211-.087l.126-.125c.042-.043.042-.127.042-.212q.129-.128.001-.254m2.792-.507c-.042-.042-.127-.126-.211-.126-.084-.043-.169-.043-.254-.043-.127 0-.211.043-.253.043a1 1 0 0 0-.212.126c-.041.042-.126.128-.126.212-.042.085-.042.211-.042.296 0 .126.042.211.042.296.042.084.085.17.126.212.043.042.127.127.212.127.085.043.212.043.253.043.127 0 .211-.043.297-.043.084-.044.211-.085.254-.169l-.128-.213a.9.9 0 0 1-.212.126c-.084.043-.126.043-.211.043-.041 0-.127 0-.127-.043-.042 0-.084-.041-.126-.041-.042-.043-.042-.043-.084-.128-.042-.043-.042-.126-.042-.169h1.015v-.127c0-.126-.043-.211-.043-.295q-.065 0-.128-.127m-.846.422.042-.126c.042-.043.042-.085.084-.128.042-.041.085-.041.126-.083.043-.044.086-.044.127-.044.127 0 .17.044.254.086.043.041.127.126.127.253zm4.822-.422c-.042-.042-.127-.126-.212-.126-.083-.043-.169-.043-.254-.043-.126 0-.211.043-.253.043-.084.041-.169.084-.211.126s-.127.128-.127.212c-.042.085-.042.211-.042.296 0 .126.042.211.042.296.043.084.085.17.127.212s.127.127.211.127c.084.043.169.043.253.043.127 0 .211-.043.254-.043.085-.044.128-.085.212-.127v.17h.295V70.06h-.295zm0 .718c-.042.043-.042.128-.084.128-.043.041-.085.084-.128.084-.042.043-.126.043-.169.043-.042 0-.126 0-.168-.043l-.127-.084c-.042-.043-.042-.085-.084-.128s-.042-.126-.042-.169c0-.042 0-.127.042-.169s.042-.127.084-.127c.042-.042.084-.085.127-.085.042-.041.126-.041.168-.041s.127 0 .169.041l.128.085c.042.042.042.085.084.127s.042.127.042.169 0 .084-.042.169m-5.499.255c-.042.042-.126.042-.126.042-.043 0-.043 0-.085-.042-.042 0-.042-.043-.084-.043l-.042-.084-.042-.128v-.591h.508v-.254h-.508v-.424h-.295v.424h-.255v.254h.254v.591c0 .212.041.339.126.424a.48.48 0 0 0 .339.127c.085 0 .169 0 .254-.043l.126-.041-.126-.255c.042 0 0 0-.044.043m2.707-1.185c-.084 0-.168 0-.211.043a.33.33 0 0 0-.169.169v-.212h-.254v1.354h.254v-.762c0-.042 0-.127.042-.169s.042-.084.042-.126c.042-.044.084-.044.127-.086s.084-.042.127-.042h.127c.041 0 .041 0 .041.042l.085-.296-.085-.042c-.041.127-.041.127-.126.127m4.187 0c-.084 0-.168.043-.211.043a.33.33 0 0 0-.169.169v-.212h-.253v1.354h.253v-.762c0-.042 0-.127.042-.169s.042-.084.042-.126c.042-.044.084-.044.127-.086s.084-.042.126-.042h.126c.042 0 .042 0 .042.042l.084-.296-.082-.041c-.043.126-.085.126-.127.126m1.396-.507v.719c-.043-.042-.127-.126-.212-.126-.084-.043-.169-.043-.253-.043-.127 0-.212.043-.254.043a1 1 0 0 0-.212.126c-.041.042-.125.128-.125.212-.043.085-.043.211-.043.296 0 .126.043.211.043.296.042.084.084.17.125.212.043.042.127.127.212.127.085.043.169.043.254.043s.211-.043.253-.043c.085-.044.127-.085.212-.127v.17h.295v-1.946zm0 1.437c-.043.043-.043.128-.085.128-.042.041-.085.084-.127.084-.042.043-.125.043-.169.043-.042 0-.126 0-.169-.043l-.127-.084c-.042-.043-.042-.085-.084-.128s-.043-.126-.043-.169c0-.042 0-.127.043-.169s.042-.127.084-.127c.042-.042.084-.085.127-.085.042-.041.127-.041.169-.041s.127 0 .169.041l.127.085c.042.043.042.085.085.127.041.042.041.127.041.169-.041.043-.041.084-.041.169m-4.864-.507c.042-.043.085-.084.126-.084.042-.042.127-.042.17-.042s.127 0 .211.042c.042.041.127.041.127.084l.127-.254c-.042-.043-.127-.084-.211-.127s-.21-.043-.296-.043-.212.043-.296.043c-.084.043-.169.084-.253.169a1 1 0 0 0-.17.212c-.042.085-.042.211-.042.296 0 .126.042.211.042.296.043.084.085.17.17.212a.65.65 0 0 0 .253.17c.084.041.211.041.296.041s.212-.041.296-.041c.042-.043.127-.043.211-.128l-.127-.254-.127.084c-.042.043-.127.043-.211.043-.042 0-.127 0-.17-.043-.042-.041-.126-.041-.126-.084-.042-.042-.084-.085-.084-.128-.042-.042-.042-.126-.042-.21 0-.085 0-.127.042-.212.042.043.084 0 .084-.042m5.794.804h.042l.042.042.042.041v.128l-.042.043-.042.042h-.126l-.043-.042-.043-.043v-.128l.043-.041.043-.042zm0 .254c.042 0 .042 0 .042-.043l.042-.041v-.043s0-.044-.042-.044l-.042-.041h-.042s-.042 0-.042.041l-.043.044v.043s0 .041.043.041zm0-.171.042.044h-.042l.042.043h-.042l-.042-.043v.043h-.042v-.128z"/><path fill="#F4A01E" d="M58.813 66.463v-.168h-.043v-.085h.17v.041h-.042v.171h-.084zm.295 0v-.126l-.042.126h-.042l-.042-.126v.126h-.042v-.212h.042l.042.129.042-.129h.042z"/><path fill="#E32528" d="M47.521 58.386a5.2 5.2 0 0 1 5.202 5.202 5.2 5.2 0 0 1-5.202 5.201 5.2 5.2 0 0 1-5.203-5.201c.043-2.876 2.369-5.202 5.203-5.202"/><path fill="#F4A01E" d="M53.991 58.386a5.2 5.2 0 0 1 5.203 5.202 5.2 5.2 0 0 1-5.203 5.201 5.197 5.197 0 0 1-5.201-5.201 5.197 5.197 0 0 1 5.201-5.202"/><path fill="#EB6424" d="M50.735 59.528c1.183.973 1.987 2.411 1.987 4.06s-.761 3.13-1.987 4.06c-1.185-.973-1.989-2.41-1.989-4.06a5.4 5.4 0 0 1 1.989-4.06"/><g fill="#2A2A6E"><path d="M14.172 69.082h2.03l1.65-7.824h-2.03zM17.937 67.094c-.085.128-.381 1.522-.381 1.733 1.522.635 4.186.678 5.328-.803.339-.422.593-1.143.424-1.859-.254-1.27-1.692-1.608-2.454-2.201-.803-.592 0-1.438 1.65-1.1.38.086.592.211.888.297l.338-1.649c-.719-.213-1.099-.338-1.988-.338-1.183 0-2.537.464-3.087 1.563-.676 1.312 0 2.369 1.184 3.004.423.211 1.227.549 1.354.972.211.72-.761.973-1.354.931-1.141-.168-1.226-.381-1.902-.55M5.46 61.343v.127c.592.085 1.733.465 2.157.761.253.212.338.592.422 1.015l1.184 4.652c.084.381.211.805.296 1.185h2.115c.169-.339 1.479-3.511 1.648-3.934l1.228-2.918c.084-.212.338-.805.423-.973h-2.114l-2.115 5.286c-.127-.168-.719-3.849-.846-4.398-.212-.931-.804-.888-1.734-.888-.846 0-1.776-.043-2.622 0zM30.539 69.082v-.044l-1.649-7.78c-.507-.043-1.141 0-1.649 0-.592 0-.804.254-.974.72-.21.422-2.959 7.021-2.959 7.146h2.114l.424-1.184h2.579c.084.211.127.507.169.676.127.551.042.508.339.508.465-.042 1.056-.042 1.606-.042m-4.144-2.792c.042-.169.972-2.79 1.057-2.875l.592 2.875z"/></g><path fill="#195DA9" d="M106.298 64.01h-2.019v1.088h1.863c.155 0 .232.039.31.077q.118.117.118.234c0 .077-.039.193-.118.232-.077.078-.154.078-.31.078h-1.863V67h2.096c.156 0 .233.039.311.116s.117.155.117.271-.039.195-.117.272a.44.44 0 0 1-.311.116h-2.445c-.194 0-.35-.039-.428-.116s-.117-.233-.117-.429v-3.338c0-.117.039-.233.039-.311a.5.5 0 0 1 .195-.195c.076-.037.193-.037.311-.037h2.368c.154 0 .233.037.311.077q.116.116.116.232a.42.42 0 0 1-.116.272.7.7 0 0 1-.311.08M110.22 66.807c0 .116-.04.194-.077.311-.078.115-.156.233-.273.351-.154.116-.31.193-.465.271a1.8 1.8 0 0 1-.66.116c-.505 0-.893-.155-1.204-.466-.271-.311-.427-.697-.427-1.203 0-.35.078-.622.195-.894.115-.271.31-.467.582-.622.232-.153.543-.233.893-.233.193 0 .389.041.582.08q.291.115.467.232c.115.116.232.194.271.311a.63.63 0 0 1 .116.311c0 .077-.04.193-.116.271a.35.35 0 0 1-.271.116c-.078 0-.117 0-.156-.038-.076-.039-.116-.117-.154-.156-.117-.154-.195-.271-.312-.35a.7.7 0 0 0-.427-.116.7.7 0 0 0-.584.272c-.154.193-.232.466-.232.776 0 .155.039.311.039.426.039.119.078.234.156.351.077.078.154.155.271.194s.232.078.35.078c.155 0 .31-.039.427-.117a.9.9 0 0 0 .312-.35c.038-.077.116-.156.154-.232a.56.56 0 0 1 .233-.078q.175 0 .233.117c.037.115.077.193.077.271M113.831 66.146q-.001.35-.116.7a1.6 1.6 0 0 1-.351.542 1.5 1.5 0 0 1-.503.35 1.9 1.9 0 0 1-.701.116c-.232 0-.465-.037-.659-.116a1.5 1.5 0 0 1-.854-.892 2.2 2.2 0 0 1-.116-.7q0-.349.116-.699a1.63 1.63 0 0 1 .855-.894 2 2 0 0 1 1.36 0c.387.156.697.467.854.894q.114.351.115.699m-.815 0c0-.35-.078-.583-.232-.776a.7.7 0 0 0-.583-.272.8.8 0 0 0-.427.116.6.6 0 0 0-.272.389q-.116.233-.116.583c0 .232.039.387.116.581.078.156.155.273.272.39a.8.8 0 0 0 .427.116c.233 0 .466-.077.583-.271.154-.273.232-.506.232-.856"/><path fill="#EB2629" d="M118.141 66.341q0 .233-.115.466a3 3 0 0 1-.312.466c-.155.155-.349.271-.582.389-.233.116-.505.156-.815.156-.232 0-.428-.04-.621-.079a2 2 0 0 1-.506-.194c-.155-.116-.311-.232-.428-.388a3.4 3.4 0 0 1-.311-.465c-.076-.195-.154-.351-.193-.545s-.077-.427-.077-.62c0-.352.038-.661.155-.973.078-.271.232-.505.466-.737q.291-.292.698-.465c.272-.118.545-.156.855-.156.349 0 .697.077.97.233.271.155.505.312.66.543.155.194.233.428.233.582a.35.35 0 0 1-.116.271.35.35 0 0 1-.272.118.56.56 0 0 1-.271-.078 3 3 0 0 1-.193-.271 1.4 1.4 0 0 0-.428-.505c-.156-.117-.35-.155-.582-.155-.389 0-.66.155-.894.427s-.312.699-.312 1.203c0 .351.039.622.156.854a.92.92 0 0 0 .426.505c.195.117.389.155.623.155.271 0 .465-.077.658-.194.195-.117.312-.312.389-.582a.6.6 0 0 1 .156-.271c.038-.079.155-.117.271-.117s.195.038.272.117c.002.115.04.232.04.31M120.819 67.351q-.29.231-.582.349a1.3 1.3 0 0 1-.622.118c-.193 0-.387-.04-.543-.118s-.271-.194-.389-.349a1.04 1.04 0 0 1-.115-.467q0-.349.232-.582a1.1 1.1 0 0 1 .582-.311c.039 0 .194-.039.39-.077.194-.039.388-.078.543-.117l.466-.116q0-.35-.117-.467c-.077-.116-.232-.154-.466-.154a1.5 1.5 0 0 0-.466.077c-.117.038-.193.155-.271.272-.039.077-.116.154-.155.232-.039.039-.116.039-.193.039-.079 0-.196-.039-.233-.078-.078-.039-.117-.155-.117-.232a.65.65 0 0 1 .154-.427c.117-.156.273-.233.467-.35q.35-.116.815-.116c.351 0 .661.039.854.116.194.076.35.231.428.427.078.193.117.427.117.737v.971c0 .155.038.312.077.504.038.156.077.272.077.312q0 .116-.116.233a.35.35 0 0 1-.272.116q-.116 0-.232-.116a1.5 1.5 0 0 1-.313-.426m-.077-1.205c-.116.039-.311.078-.544.155q-.348.059-.466.116c-.076.039-.193.078-.271.154a.36.36 0 0 0-.116.274c0 .115.038.231.155.31.077.076.232.116.389.116q.231-.001.466-.116a.7.7 0 0 0 .31-.272c.078-.117.117-.349.117-.621zM124.858 66.729c0 .233-.04.428-.155.583-.117.156-.271.272-.504.388-.234.078-.467.118-.777.118s-.545-.04-.777-.156c-.193-.077-.388-.193-.465-.35a.64.64 0 0 1-.156-.428q0-.116.117-.232.116-.117.232-.116c.078 0 .154.037.193.077.04.039.078.116.117.194a.9.9 0 0 0 .311.35.84.84 0 0 0 .467.116c.155 0 .311-.04.387-.116.117-.078.157-.155.157-.272 0-.155-.04-.232-.157-.312-.115-.076-.31-.115-.543-.192a7 7 0 0 1-.698-.233c-.155-.077-.311-.155-.427-.311-.117-.116-.156-.272-.156-.466 0-.156.039-.311.156-.466a.96.96 0 0 1 .427-.351q.291-.115.698-.117c.233 0 .389.041.583.08.155.037.312.115.427.193.117.077.194.155.271.233.078.077.078.193.078.271a.55.55 0 0 1-.078.233c-.077.079-.154.079-.271.079-.078 0-.155-.04-.232-.079-.077-.077-.156-.155-.194-.233-.077-.077-.116-.154-.233-.193a.75.75 0 0 0-.35-.077c-.154 0-.271.037-.388.077-.116.077-.156.154-.156.233q.001.115.116.232c.078.04.156.116.312.155s.312.078.505.116c.271.078.466.156.621.233s.271.194.389.311a.75.75 0 0 1 .153.428M126.178 63.74v1.24c.117-.115.195-.231.311-.271a1 1 0 0 1 .351-.156c.116-.037.271-.037.388-.037.195 0 .389.037.543.115.156.078.272.233.389.389a.54.54 0 0 1 .117.35c.039.116.039.271.039.427v1.515a.65.65 0 0 1-.117.388.44.44 0 0 1-.31.118c-.272 0-.428-.156-.428-.506v-1.397c0-.272-.038-.467-.116-.622s-.233-.232-.467-.232a.67.67 0 0 0-.389.115c-.115.079-.193.195-.271.352-.039.115-.076.349-.076.659v1.126a.65.65 0 0 1-.117.388.44.44 0 0 1-.311.118c-.271 0-.428-.156-.428-.506V63.7c0-.155.039-.312.117-.388.078-.079.156-.117.311-.117.116 0 .233.038.311.117a.59.59 0 0 1 .153.428"/><path fill="#020202" d="m145.423 64.19-.337-2.325s1.649-.508 3.087-1.565c1.438-1.101 1.606-1.269 1.606-1.269h3.893l-1.438 5.117s.084.042.254-.086c.211-.125.38-.295.38-.295s-.169.635-2.918 1.607-4.779.719-4.949.254c-.168-.466.466-.932.466-.932s-.466.635.254.762c.719.17 1.396.128 1.48.043l.084-.085.551-2.242z"/><path fill="#020202" d="M153.672 63.092s.718.337.507.93c-.169.592-1.396 1.268-2.411 1.565-1.016.253-2.029.253-2.029.253 1.225-.085 4.651-1.058 3.933-2.748m-15.946 6.976.974-3.593h.93l.551 1.438 1.268-1.354h1.101l-.931 3.51h-1.016l.55-1.987h-.126l-1.226 1.354-.594-1.354h-.126l-.508 1.987h-.847z"/><path fill="#F68821" d="M145.086 66.476s1.944-.299 1.691 1.605c-.254 1.903-2.834 2.326-3.638 1.819-.846-.508-.508-1.692-.423-1.819s.931-.423.931-.423-.212-.126-.466-.085l-.254.043c-.041.042.552-.972 2.159-1.14m-.805 2.749c.381.124.847-.171 1.058-.679.212-.507.084-1.014-.296-1.142-.381-.126-.846.169-1.057.677-.212.508-.085 1.016.295 1.144m2.411.843 1.057-3.552h.931l.973 2.029.593-2.029h.974l-1.017 3.552h-1.015l-.888-1.944-.635 1.944zm5.076-3.551h2.918l-.211.762h-1.946l-.168.635h1.818l-.213.718-1.776-.042-.21.72 1.944.04-.212.72h-2.917z"/><path fill="#020202" d="m155.109 66.517.761 2.198-.382 1.354h.973l.382-1.354 2.029-2.239h-1.142l-1.143 1.351h-.084l-.381-1.351h-1.014v.041z"/><g fill="#FFF"><path d="M63.057 18.348c3.092 0 4.152.474 4.919 1.219 1.106 1.083 1.467 2.73 1.151 4.423-.316 1.692-1.354 3.476-2.573 4.378-1.331.971-2.55 1.444-5.145 1.444h-1.67l-.97 5.236h-4.265l3.092-16.7zm-2.618 7.718h1.557c.406 0 1.083 0 1.693-.248.609-.249 1.151-.768 1.332-1.761.18-.993-.203-1.467-.745-1.715-.542-.249-1.241-.249-1.715-.249h-1.399z"/><path d="M80.075 35.048h-3.747l.249-1.354c-.903 1.219-2.573 1.783-4.04 1.783-3.972 0-5.71-3.114-5.033-6.703.745-4.107 4.175-6.68 7.515-6.68 2.054 0 3.024.993 3.385 1.76l.249-1.331h3.746zm-8.847-6.206c-.203 1.151.271 3.137 2.527 3.137 1.332 0 2.257-.632 2.889-1.399a4.3 4.3 0 0 0 .813-1.603c.136-.564.136-1.128-.022-1.647-.248-.857-.925-1.738-2.505-1.738-2.144 0-3.43 1.806-3.701 3.228v.022z"/><path d="m84.455 34.417-2.437-11.893h3.994l1.196 7.267 3.746-7.267h3.972l-9.366 16.7h-3.972zM109.755 28.526l1.782-10.178h4.085l-3.092 16.7h-3.701l-4.514-10.065-1.782 10.065h-4.085l3.092-16.7h3.679zM114.676 28.752c.564-3.047 3.408-6.635 7.967-6.635s6.094 3.588 5.529 6.657c-.587 3.069-3.431 6.658-7.989 6.658s-6.093-3.588-5.507-6.658zm3.723.045c-.315 1.806.813 3.137 2.438 3.137s3.25-1.332 3.589-3.16-.813-3.159-2.438-3.159-3.228 1.331-3.565 3.159zM128.24 22.523h3.882l.474 7.786 3.498-7.786h3.159l.678 7.786 3.317-7.786h3.858l-6.16 12.525h-3.476l-.632-8.102-3.611 8.102h-3.476z"/></g></svg>